<svg width="115" height="38" viewBox="0 0 115 38" fill="none" xmlns="http://www.w3.org/2000/svg">
<path fill-rule="evenodd" clip-rule="evenodd" d="M7 2H108C110.761 2 113 4.23858 113 7V31C113 33.7614 110.761 36 108 36H7C4.23858 36 2 33.7614 2 31V7C2 4.23858 4.23858 2 7 2ZM0 7C0 3.13401 3.13401 0 7 0H108C111.866 0 115 3.13401 115 7V31C115 34.866 111.866 38 108 38H7C3.13401 38 0 34.866 0 31V7ZM16.708 15.364C16.2973 16.5213 16.092 17.7067 16.092 18.92C16.092 20.1707 16.316 21.412 16.764 22.644C17.2307 23.8573 17.8747 24.9587 18.696 25.948C19.536 26.9187 20.5253 27.7027 21.664 28.3C22.8027 28.8787 24.0533 29.168 25.416 29.168C26.4427 29.168 27.4787 28.9907 28.524 28.636C29.588 28.2813 30.5493 27.7587 31.408 27.068C32.2667 26.3773 32.9013 25.5373 33.312 24.548L31.212 23.4C30.8387 24.2213 30.3347 24.8933 29.7 25.416C29.0653 25.92 28.384 26.2933 27.656 26.536C26.928 26.7787 26.2187 26.9 25.528 26.9C24.5387 26.9 23.624 26.6853 22.784 26.256C21.944 25.8267 21.216 25.248 20.6 24.52C19.984 23.792 19.4987 22.952 19.144 22C18.808 21.048 18.64 20.0587 18.64 19.032C18.64 18.0987 18.78 17.1747 19.06 16.26C19.3587 15.3267 19.7973 14.4867 20.376 13.74C20.9547 12.9933 21.664 12.396 22.504 11.948C23.3627 11.5 24.3427 11.276 25.444 11.276C26.116 11.276 26.7973 11.3787 27.488 11.584C28.1973 11.7893 28.8507 12.144 29.448 12.648C30.064 13.1333 30.568 13.796 30.96 14.636L32.948 13.348C32.332 12.0787 31.3893 11.0427 30.12 10.24C28.8507 9.41867 27.3293 9.008 25.556 9.008C24.0627 9.008 22.728 9.29733 21.552 9.876C20.376 10.436 19.3773 11.2013 18.556 12.172C17.7533 13.124 17.1373 14.188 16.708 15.364ZM45.5432 28.3C46.6819 28.86 47.9512 29.14 49.3512 29.14C50.6952 29.14 51.9365 28.8693 53.0752 28.328C54.2139 27.7867 55.2032 27.0493 56.0432 26.116C56.9019 25.164 57.5645 24.0907 58.0312 22.896C58.4979 21.6827 58.7312 20.4133 58.7312 19.088C58.7312 17.8373 58.5072 16.6147 58.0592 15.42C57.6112 14.2253 56.9765 13.1427 56.1552 12.172C55.3339 11.2013 54.3539 10.4267 53.2152 9.848C52.0765 9.26933 50.8072 8.98 49.4072 8.98C48.0632 8.98 46.8219 9.26 45.6832 9.82C44.5445 10.3613 43.5459 11.108 42.6872 12.06C41.8472 12.9933 41.1845 14.0667 40.6992 15.28C40.2325 16.4747 39.9992 17.7347 39.9992 19.06C39.9992 20.3293 40.2232 21.5707 40.6712 22.784C41.1192 23.9787 41.7539 25.0613 42.5752 26.032C43.4152 26.984 44.4045 27.74 45.5432 28.3ZM43.0232 22C42.7059 21.048 42.5472 20.068 42.5472 19.06C42.5472 18.0893 42.7059 17.1467 43.0232 16.232C43.3405 15.2987 43.7885 14.4587 44.3672 13.712C44.9645 12.9653 45.6832 12.3773 46.5232 11.948C47.3632 11.5 48.3152 11.276 49.3792 11.276C50.3872 11.276 51.3019 11.4907 52.1232 11.92C52.9632 12.3307 53.6819 12.9093 54.2792 13.656C54.8952 14.384 55.3619 15.2147 55.6792 16.148C56.0152 17.0813 56.1832 18.052 56.1832 19.06C56.1832 20.012 56.0245 20.9547 55.7072 21.888C55.4085 22.8213 54.9605 23.6613 54.3632 24.408C53.7845 25.1547 53.0752 25.752 52.2352 26.2C51.3952 26.648 50.4432 26.872 49.3792 26.872C48.3525 26.872 47.4192 26.6573 46.5792 26.228C45.7392 25.7987 45.0205 25.22 44.4232 24.492C43.8259 23.764 43.3592 22.9333 43.0232 22ZM69.7925 9.12H67.2725V29H69.7925V9.12ZM82.1059 29V13.768L94.0899 29H96.3859V9.148H93.8659V24.66L81.7139 9.12H79.5859V29H82.1059Z" fill="white"/>
</svg>
